<svg width="174" height="174" viewBox="0 0 174 174" fill="none" xmlns="http://www.w3.org/2000/svg">
<g clip-path="url(#clip0_1_496)">
<circle cx="87" cy="87" r="87" fill="#F48120"/>
<path d="M157.836 81.7156C157.836 81.7156 117.508 70.5513 95.7928 92.4195C98.0598 87.2402 100.207 82.0609 101.878 77.2269C101.878 77.2269 115.957 45 77.657 45H44.1297L17.9999 107.037L55.4646 107.612C55.4646 107.612 87.2022 108.993 76.2253 130.631H76.4639C76.4639 130.631 76.4639 130.631 76.4639 130.516C79.5661 129.826 117.508 122.229 133.377 130.516C134.093 130.862 158.194 81.9458 158.194 81.9458L157.836 81.7156Z" fill="white"/>
</g>
<defs>
<clipPath id="clip0_1_496">
<rect width="174" height="174" rx="87" fill="white"/>
</clipPath>
</defs>
</svg>
